PathFileType	4	(X/Y/Z)	D:\Share\Shared_Data\Ergonomics\Sit To Stand Pertubation\S0\Free STS.trc
DataRate	CameraRate	NumFrames	NumMarkers	Units	OrigDataRate	OrigDataStartFrame	OrigNumFrames	
100	100	11	18	m	100	3979	211
Frame#	Time	R_Toe			R_ASIS			R_Pelvis			V_Sacral			L_Pelvis			L_ASIS			Clavical			R_Acromium			L_Acromium			Sternum			Torso			R_Thigh_Med			R_Thigh_Lat			R_Thigh			R_Shank_Med			R_Shank_Lat			R_Shank			R_Heel			
		X1	Y1	Z1	X2	Y2	Z2	X3	Y3	Z3	X4	Y4	Z4	X5	Y5	Z5	X6	Y6	Z6	X7	Y7	Z7	X8	Y8	Z8	X9	Y9	Z9	X10	Y10	Z10	X11	Y11	Z11	X12	Y12	Z12	X13	Y13	Z13	X14	Y14	Z14	X15	Y15	Z15	X16	Y16	Z16	X17	Y17	Z17	X18	Y18	Z18	

3979	26.21	0.38118094	0.045107845	0.13970764	0.20758168	0.89536865	0.15661407	0.10102874	0.96164343	0.20115472	-0.015720416	0.99028699	-0.032718941	0.12335765	0.93726361	-0.21228752	0.22293074	0.87415137	-0.15586928	0.46791617	1.2153477	-0.0057462168	0.423629	1.3120309	0.12666303	0.41870685	1.3174513	-0.15048044	0.44444568	1.1210245	-0.024503832	0.4490997	1.1756725	-0.12612574	0.33936185	0.48246011	0.056396374	0.33680884	0.50527386	0.18882954	0.35126569	0.65637341	0.11633398	0.25709869	0.098594254	0.10172411	0.20146518	0.091492119	0.19210864	0.27288824	0.31089368	0.20678261	0.15706456	0.047716587	0.14945479
3980	26.22	0.3811037	0.04510659	0.13968631	0.21082751	0.89897717	0.15699431	0.10410759	0.96448346	0.20136848	-0.012496722	0.99283997	-0.032506992	0.1266871	0.94052722	-0.21211385	0.22629091	0.87777582	-0.15556154	0.46737338	1.2233442	-0.0058929596	0.42216937	1.3194836	0.1269547	0.41717929	1.3249119	-0.15072859	0.44515497	1.128714	-0.024350117	0.44913242	1.1833594	-0.12637697	0.33946078	0.48239017	0.056252342	0.33705121	0.50517905	0.18858409	0.35309271	0.65619775	0.11647123	0.25697211	0.098500725	0.1016635	0.20138744	0.091398979	0.19209361	0.27289789	0.31078955	0.2066886	0.15695441	0.047548531	0.14945938
3981	26.23	0.38102225	0.045106518	0.13966795	0.21413574	0.90259814	0.15735838	0.10721183	0.96725519	0.2015544	-0.009290637	0.99533746	-0.032281586	0.1299989	0.94376013	-0.21193411	0.2296964	0.88144238	-0.15527722	0.46664877	1.231314	-0.0060698032	0.42059201	1.3269081	0.1272402	0.41551031	1.3323431	-0.15097658	0.44577722	1.1363893	-0.024188602	0.4490011	1.1910245	-0.12661993	0.33951785	0.48233414	0.056125992	0.33724512	0.50510025	0.18834641	0.35486325	0.65601733	0.11658787	0.25683304	0.09841478	0.10161195	0.20130103	0.091306786	0.19208611	0.27288348	0.31069373	0.20660405	0.15684348	0.047382866	0.1494671
3982	26.24	0.38094028	0.045107189	0.13965349	0.21751346	0.9062254	0.1577028	0.11034402	0.96996533	0.20171555	-0.0061053028	0.99777271	-0.032039371	0.13328297	0.94695673	-0.21175079	0.23313751	0.8851438	-0.15502695	0.46574838	1.239246	-0.0062781277	0.41889832	1.3342913	0.12751734	0.41370331	1.3397366	-0.15122296	0.44632751	1.1440392	-0.024026371	0.44871255	1.1986605	-0.12685493	0.33954248	0.48229437	0.056018066	0.3373804	0.50504129	0.18812431	0.35658023	0.65583582	0.11669081	0.2566853	0.098337799	0.101571	0.20120784	0.091218765	0.19208504	0.27284174	0.31061273	0.20653195	0.15673499	0.047225315	0.14947798
3983	26.25	0.38086093	0.045107918	0.13964369	0.22096484	0.90985315	0.15802327	0.11350525	0.97261981	0.20185663	-0.00294312	1.00014	-0.031777639	0.13653075	0.95011249	-0.21156538	0.23660092	0.88887183	-0.15481943	0.46468481	1.247129	-0.0065152178	0.41708847	1.3416168	0.12778455	0.41176364	1.347082	-0.15146597	0.44681787	1.1516505	-0.023872286	0.44828601	1.2062593	-0.1270816	0.33954062	0.48227359	0.055928047	0.33745157	0.50500726	0.18792003	0.35824698	0.65565649	0.11678449	0.25653333	0.09827076	0.10154173	0.2011102	0.091137764	0.19208887	0.27276804	0.31055246	0.20647452	0.15663228	0.047080856	0.14949197
3984	26.26	0.38078625	0.045107697	0.13963928	0.22449068	0.91347522	0.15831499	0.11669742	0.97522174	0.20198456	0.00019467415	1.0024358	-0.031494688	0.13973653	0.95322388	-0.21137733	0.2400714	0.89261914	-0.15465901	0.46347821	1.2549501	-0.0067732177	0.41516302	1.3488678	0.12804041	0.40969894	1.3543671	-0.15170396	0.44725558	1.1592094	-0.023736202	0.44774673	1.2138118	-0.12729903	0.33951492	0.48227451	0.055854416	0.33745697	0.50500262	0.18773192	0.35986658	0.65548224	0.11687091	0.25638177	0.098214211	0.10152465	0.20101042	0.091065971	0.19209563	0.27265729	0.3105177	0.20643292	0.15653847	0.046953548	0.14950854
3985	26.27	0.3807178	0.045105221	0.13964088	0.2280865	0.917086	0.1585726	0.11992371	0.97777039	0.20210791	0.003308002	1.0046587	-0.031189825	0.14289735	0.9562876	-0.21118469	0.24353532	0.89637933	-0.1545457	0.46215521	1.2626947	-0.0070388188	0.41312503	1.356026	0.12828394	0.4075192	1.3615779	-0.15193539	0.44764178	1.166701	-0.023627321	0.44711713	1.2213068	-0.12750584	0.33946411	0.48229971	0.055794861	0.33739661	0.5050304	0.18755678	0.36144012	0.65531494	0.1169505	0.25623477	0.098168259	0.10151944	0.20091045	0.09100473	0.19210313	0.27250439	0.31051187	0.20640678	0.15645634	0.046846062	0.14952644
3986	26.28	0.38065646	0.045099213	0.13964905	0.23174039	0.92068201	0.15878941	0.12318675	0.98026343	0.20223491	0.0063977141	1.0068083	-0.030863277	0.14601169	0.95929913	-0.21098593	0.24698637	0.90014551	-0.15447816	0.46074695	1.2703481	-0.0072946544	0.41098151	1.3630752	0.12851483	0.40523645	1.368699	-0.15215892	0.44797092	1.1741125	-0.023552219	0.44641187	1.2287312	-0.12770091	0.33938412	0.48235095	0.055746223	0.33727103	0.50509198	0.18739093	0.36296619	0.65515527	0.11702287	0.25609427	0.098132301	0.10152499	0.20081171	0.09095462	0.19210898	0.27230524	0.31053632	0.20639355	0.15638794	0.046759392	0.14954372
3987	26.29	0.3806026	0.045088787	0.13966444	0.23543318	0.92426312	0.15895726	0.1264866	0.98269843	0.20237077	0.0094654236	1.0088855	-0.030516378	0.14907909	0.96225256	-0.21078123	0.25042818	0.90390845	-0.15445596	0.45928442	1.2778942	-0.0075227308	0.40874203	1.3699991	0.12873341	0.40286346	1.3757139	-0.1523734	0.44823209	1.1814318	-0.023513449	0.44563885	1.2360697	-0.12788443	0.33926962	0.48242865	0.055704483	0.3370816	0.50518762	0.18723012	0.36444351	0.65500336	0.11708684	0.25595966	0.098104744	0.10153945	0.2007151	0.090915703	0.19211073	0.27205676	0.31059052	0.20638844	0.15633424	0.046693077	0.14955806
3988	26.3	0.38055624	0.04507346	0.13968771	0.23914488	0.92783142	0.15906824	0.1298199	0.98507458	0.20251579	0.012513257	1.0108913	-0.030151947	0.15209991	0.96514142	-0.210573	0.25387057	0.90765784	-0.15447954	0.45779315	1.2853164	-0.0077090249	0.40641736	1.3767838	0.12894026	0.4004126	1.3826055	-0.15257802	0.44841248	1.1886478	-0.023509659	0.4448017	1.2433066	-0.12805824	0.33911554	0.48253168	0.055664677	0.33683038	0.50531638	0.18706955	0.36587445	0.65485974	0.1171399	0.25582841	0.098083351	0.1015604	0.20062123	0.090887497	0.19210629	0.27175699	0.31067209	0.20638545	0.15629518	0.046645424	0.14956726
3989	26.31	0.38051709	0.045053127	0.13971947	0.24286296	0.93138684	0.15911885	0.13318005	0.98739392	0.20266492	0.015543553	1.0128264	-0.02977421	0.15507503	0.96795941	-0.21036604	0.25732404	0.91138348	-0.15454927	0.45628619	1.2926	-0.0078473549	0.40401794	1.3834165	0.12913618	0.39789441	1.3893572	-0.1527718	0.44850238	1.1957504	-0.023536919	0.44390207	1.2504259	-0.12822513	0.33891861	0.48265738	0.055621067	0.33652042	0.50547583	0.18690378	0.36726532	0.6547254	0.11717826	0.25569826	0.098066269	0.10158477	0.20053023	0.090868965	0.19209425	0.27140573	0.31077786	0.20637827	0.15626961	0.046613792	0.14956973
